# xmcd
#
# Track frame offsets:
#	150
#	14747
#	37054
#	50208
#	62649
#	79598
#	97205
#	110563
#	133147
#
# Disc length: 2127 seconds
#
# Revision: 1
# Processed by: cddbd v1.5.2PL0 Copyright (c) Steve Scherf et al.
# Submitted via: audiograbber 1.83.01
#
DISCID=86084d09
DTITLE=James Gang - Straight Shooter
DYEAR=1973
DGENRE=Rock
TTITLE0=Madness
TTITLE1=Kickback Man
TTITLE2=Looking For My Lady
TTITLE3=Get Her Back Again
TTITLE4=Getting Older
TTITLE5=I´ll Tell You Why
TTITLE6=Hair Hypochondriac
TTITLE7=Let Me Come Home
TTITLE8=My Door Is Open
EXTD=
EXTT0=
EXTT1=
EXTT2=
EXTT3=
EXTT4=
EXTT5=
EXTT6=
EXTT7=
EXTT8=
PLAYORDER=
